<?xml version="1.0" encoding="UTF-8"?>
<svg id="_cpchain_1" data-name="cpchain 1" xmlns="http://www.w3.org/2000/svg" viewBox="0 0 543.96 320.17">
  <defs>
    <style>
      .cls-1 {
        fill: #00ce7a;
      }
    </style>
  </defs>
  <path d="M456.03,185.64v-38.15h10.82v5.41c2.49-3.2,5.7-6.12,11.18-6.12,8.19,0,12.95,5.41,12.95,14.16v24.7h-10.82v-21.28c0-5.13-2.42-7.76-6.55-7.76s-6.76,2.63-6.76,7.76v21.28h-10.82Z"/>
  <path d="M434.76,143.29v-9.61h11.39v9.61h-11.39ZM435.05,185.64v-38.15h10.82v38.15h-10.82Z"/>
  <path d="M403.24,186.35c-7.19,0-13.1-4.13-13.1-11.67v-.14c0-8.33,6.33-12.17,15.38-12.17,3.84,0,6.62.64,9.33,1.57v-.64c0-4.48-2.78-6.98-8.19-6.98-4.13,0-7.05.78-10.54,2.06l-2.71-8.26c4.2-1.85,8.33-3.06,14.81-3.06,5.91,0,10.18,1.57,12.88,4.27,2.85,2.85,4.13,7.05,4.13,12.17v22.14h-10.46v-4.13c-2.63,2.92-6.26,4.84-11.53,4.84ZM406.52,178.88c5.05,0,8.47-2.78,8.47-6.69v-1.92c-1.85-.85-4.27-1.42-6.9-1.42-4.63,0-7.47,1.85-7.47,5.27v.14c0,2.92,2.42,4.63,5.91,4.63Z"/>
  <path d="M348.08,185.64v-51.96h10.82v19.22c2.49-3.2,5.7-6.12,11.18-6.12,8.19,0,12.96,5.41,12.96,14.17v24.7h-10.82v-21.28c0-5.13-2.42-7.76-6.55-7.76s-6.76,2.63-6.76,7.76v21.28h-10.82Z"/>
  <path d="M320.01,186.5c-14.66,0-25.55-11.32-25.55-25.63v-.14c0-14.16,10.68-25.77,25.98-25.77,9.4,0,15.02,3.13,19.65,7.69l-6.98,8.04c-3.84-3.49-7.76-5.62-12.74-5.62-8.4,0-14.45,6.98-14.45,15.52v.14c0,8.54,5.91,15.66,14.45,15.66,5.7,0,9.18-2.28,13.1-5.84l6.98,7.05c-5.13,5.48-10.82,8.9-20.43,8.9Z"/>
  <path d="M231.12,185.64v-49.83h20.36c11.89,0,19.08,7.05,19.08,17.23v.14c0,11.53-8.97,17.51-20.15,17.51h-8.33v14.95h-10.96ZM242.08,160.94h8.68c5.48,0,8.68-3.27,8.68-7.55v-.14c0-4.91-3.42-7.55-8.9-7.55h-8.47v15.23Z"/>
  <path d="M201.91,186.5c-14.66,0-25.55-11.32-25.55-25.63v-.14c0-14.17,10.68-25.77,25.98-25.77,9.4,0,15.02,3.13,19.65,7.69l-6.98,8.04c-3.84-3.49-7.76-5.62-12.74-5.62-8.4,0-14.45,6.98-14.45,15.52v.14c0,8.54,5.91,15.66,14.45,15.66,5.7,0,9.18-2.28,13.1-5.84l6.97,7.05c-5.13,5.48-10.82,8.9-20.43,8.9Z"/>
  <path class="cls-1" d="M78.54,160.09c0,6.82,2.69,13.36,7.49,18.18,4.79,4.82,11.3,7.53,18.07,7.53h44.28c-5.63,9.8-14.31,17.47-24.71,21.8-10.4,4.33-21.93,5.09-32.8,2.16-10.87-2.93-20.48-9.39-27.33-18.37-6.85-8.98-10.56-19.99-10.56-31.31s3.71-22.33,10.56-31.31c6.85-8.98,16.46-15.44,27.33-18.37,10.87-2.93,22.4-2.17,32.8,2.16,10.4,4.33,19.08,11.99,24.71,21.8,1.48,2.56,2.73,5.25,3.74,8.03v.05c.12.31.23.64.34.95,0,.01,0,.02,0,.03.59,1.92.72,3.95.39,5.94-.33,1.98-1.12,3.86-2.31,5.48-1.19,1.62-2.73,2.94-4.51,3.85-1.78.91-3.75,1.38-5.75,1.39h-10.61c0-6.82-2.69-13.36-7.49-18.18s-11.3-7.53-18.07-7.53-13.28,2.71-18.07,7.53c-4.79,4.82-7.49,11.36-7.49,18.18Z"/>
</svg>
